<svg width="33" height="33" viewBox="0 0 33 33" fill="none" xmlns="http://www.w3.org/2000/svg">
<path fill-rule="evenodd" clip-rule="evenodd" d="M23.7525 9.09367C23.7525 9.55396 23.3084 10.2926 21.8414 10.9746C20.4605 11.6166 18.4829 12.0403 16.2454 12.0403C14.0078 12.0403 12.0303 11.6166 10.6493 10.9746C9.18234 10.2926 8.73818 9.55396 8.73818 9.09367C8.73818 8.63338 9.18234 7.89473 10.6493 7.21274C12.0303 6.57075 14.0078 6.14706 16.2454 6.14706C18.4829 6.14706 20.4605 6.57075 21.8414 7.21274C23.3084 7.89473 23.7525 8.63338 23.7525 9.09367ZM23.7132 10.9826C22.2719 12.2115 19.4681 13.0453 16.2454 13.0453C13.0218 13.0453 10.2174 12.211 8.77647 10.9817L8.77648 14.4594C8.93881 14.8993 9.4402 15.5423 10.56 16.0942C11.3844 16.5007 12.5281 16.8481 14.0696 17.0192C13.9088 17.2883 13.7529 17.5592 13.6063 17.828C13.5813 17.8738 13.5567 17.9195 13.5323 17.965C12.1053 17.7694 10.9857 17.4219 10.1253 16.9978C9.57889 16.7284 9.1312 16.4247 8.77648 16.1057L8.77648 19.4539C8.89555 19.5849 9.09478 19.7565 9.39161 19.9488C9.77369 20.1964 10.2892 20.4601 10.9345 20.7014C11.4385 20.8899 12.019 21.0638 12.673 21.2057C12.7411 21.596 12.8697 21.9652 13.0483 22.3034C12.1098 22.1365 11.2882 21.9051 10.5904 21.6441C9.8883 21.3815 9.30706 21.0873 8.85633 20.7952C8.82936 20.7777 8.80274 20.7602 8.77648 20.7426L8.77648 24.0508C8.90144 24.175 9.10631 24.3386 9.40532 24.5231C9.79847 24.7655 10.3261 25.0265 10.982 25.2666C12.2929 25.7465 14.1004 26.1371 16.3396 26.1371C18.8282 26.1371 20.5104 25.7686 21.6631 25.309C22.6809 24.9031 23.3026 24.4198 23.7132 24.0291V20.8043C23.3088 21.0887 22.7905 21.3691 22.1612 21.6184C21.4227 21.9109 20.513 22.1684 19.4169 22.3424C19.6009 22.0072 19.7355 21.6406 19.8101 21.2523C20.5953 21.0974 21.2553 20.8981 21.7994 20.6825C22.9091 20.243 23.4924 19.7552 23.7102 19.4732V16.0696C23.3826 16.3534 22.9711 16.6344 22.4702 16.8932C21.5943 17.3457 20.438 17.7344 18.9594 17.9519C18.936 17.9083 18.9123 17.8646 18.8883 17.8208C18.7409 17.5514 18.584 17.2798 18.4222 17.01C20.0036 16.8201 21.1802 16.4314 22.0188 15.9981C22.6114 15.6919 23.031 15.3657 23.3071 15.0757C23.5687 14.8008 23.6795 14.5824 23.7132 14.4616V10.9826ZM24.706 9.47658C24.732 9.35058 24.7454 9.22285 24.7454 9.09367C24.7454 6.91127 20.9398 5.14209 16.2454 5.14209C11.5509 5.14209 7.74536 6.91127 7.74536 9.09367C7.74536 9.22102 7.75832 9.34697 7.78366 9.47124L7.78366 14.5324L7.78075 14.5328V19.7816L7.78366 19.7859L7.78367 24.4115L7.88553 24.5465C8.0899 24.8175 8.44155 25.1055 8.88873 25.3813C9.34559 25.663 9.93439 25.9518 10.6443 26.2117C12.0652 26.7318 13.9871 27.1421 16.3396 27.1421C18.9238 27.1421 20.7341 26.7595 22.0269 26.244C23.3264 25.7259 24.0812 25.082 24.5605 24.5969L24.706 24.4498V9.47658Z" fill="#2C355A"/>
<path fill-rule="evenodd" clip-rule="evenodd" d="M15.6679 16.0466C15.89 15.7115 16.0798 15.421 16.2458 15.1421C16.3011 15.2288 16.3578 15.3183 16.4165 15.4109L16.4169 15.4116L16.4169 15.4117C16.5423 15.6096 16.6764 15.8213 16.8223 16.0454L16.8224 16.0456C17.3207 16.8097 17.9325 17.7509 18.4202 18.6628C18.6638 19.1184 18.8728 19.5602 19.0203 19.9634C19.1692 20.3705 19.2476 20.7178 19.2476 20.9902C19.2476 21.861 18.9052 22.6469 18.3584 23.218C17.8118 23.789 17.0659 24.1406 16.2455 24.1406C15.4253 24.1406 14.6788 23.7891 14.1314 23.2299C13.5853 22.6589 13.2434 21.8735 13.2434 21.0033C13.2434 20.7308 13.3218 20.3827 13.4708 19.9742C13.6184 19.5697 13.8275 19.1262 14.0711 18.6689C14.5585 17.7542 15.1701 16.8101 15.6679 16.0466ZM14.4446 20.5038C14.2219 20.4932 14.0327 20.6651 14.022 20.8879C14.0023 21.3013 14.1635 21.8328 14.4413 22.2512C14.7183 22.6682 15.1903 23.0819 15.8334 23.026C16.0556 23.0067 16.22 22.8109 16.2007 22.5888C16.1814 22.3666 15.9857 22.2021 15.7635 22.2215C15.5448 22.2405 15.3154 22.1075 15.1141 21.8044C14.9132 21.5019 14.8186 21.1377 14.8287 20.9265C14.8393 20.7037 14.6674 20.5145 14.4446 20.5038Z" fill="#3F5BD9"/>
</svg>
