<svg width="33" height="33" viewBox="0 0 33 33" fill="none" xmlns="http://www.w3.org/2000/svg">
<path fill-rule="evenodd" clip-rule="evenodd" d="M4.82434 17.6421L13.5772 17.6421L14.9468 23.6421L3.45477 23.6421L4.82434 17.6421ZM13.5772 16.6421H4.82434C4.35779 16.6421 3.95324 16.9647 3.84941 17.4196L2.47985 23.4196C2.33695 24.0456 2.81266 24.6421 3.45477 24.6421H14.9468C15.5889 24.6421 16.0646 24.0456 15.9217 23.4196L14.5522 17.4196C14.4483 16.9647 14.0438 16.6421 13.5772 16.6421ZM18.8321 17.6421L27.5851 17.6421L28.9546 23.6421L17.4626 23.6421L18.8321 17.6421ZM27.5851 16.6421H18.8321C18.3656 16.6421 17.961 16.9647 17.8572 17.4196L16.4877 23.4196C16.3448 24.0456 16.8205 24.6421 17.4626 24.6421H28.9546C29.5967 24.6421 30.0724 24.0456 29.9295 23.4196L28.56 17.4196C28.4562 16.9647 28.0516 16.6421 27.5851 16.6421Z" fill="#2C355A"/>
<path d="M21.3409 7.14209H11.06C10.6049 7.14209 10.2072 7.44934 10.0924 7.88967L8.52716 13.8897C8.36188 14.5233 8.83999 15.1421 9.49478 15.1421H22.9061C23.5609 15.1421 24.039 14.5233 23.8737 13.8897L22.3085 7.88967C22.1936 7.44934 21.796 7.14209 21.3409 7.14209Z" fill="#FF9933"/>
</svg>
