<svg width="33" height="33" viewBox="0 0 33 33" fill="none" xmlns="http://www.w3.org/2000/svg">
<path fill-rule="evenodd" clip-rule="evenodd" d="M22.8315 21.8452C22.8942 21.93 22.9314 22.0355 22.9314 22.1498V22.8606H21.9324H11.9421H10.9431V22.1498C10.9431 22.0355 10.9803 21.93 11.043 21.8452C11.1341 21.7219 11.2792 21.6421 11.4426 21.6421H22.4319C22.5953 21.6421 22.7404 21.7219 22.8315 21.8452ZM11.2046 24.088C11.0666 24.088 10.9548 24.2017 10.9548 24.3419V27.3882C10.9548 27.5284 11.0666 27.6421 11.2046 27.6421H22.6934C22.8313 27.6421 22.9431 27.5284 22.9431 27.3882V24.3419C22.9431 24.2017 22.8313 24.088 22.6934 24.088H21.1957C21.0578 24.088 20.946 24.2017 20.946 24.3419V24.5892C20.946 24.9526 20.6566 25.2472 20.2996 25.2472C19.9426 25.2472 19.6532 24.9525 19.6532 24.5891V24.3419C19.6532 24.2017 19.5414 24.088 19.4035 24.088H17.8448C17.7069 24.088 17.5951 24.2017 17.5951 24.3419V24.5892C17.5951 24.9526 17.3057 25.2472 16.9487 25.2472C16.5917 25.2472 16.3023 24.9525 16.3023 24.5891V24.3419C16.3023 24.2017 16.1905 24.088 16.0526 24.088H14.494C14.356 24.088 14.2442 24.2017 14.2442 24.3419V24.5892C14.2442 24.9526 13.9548 25.2472 13.5978 25.2472C13.2409 25.2472 12.9515 24.9525 12.9515 24.5891V24.3419C12.9515 24.2017 12.8397 24.088 12.7017 24.088H11.2046ZM11.9392 25.1508C11.9392 25.1173 11.9659 25.0901 11.9989 25.0901C12.0249 25.0901 12.0479 25.1073 12.0564 25.1324C12.2774 25.7825 12.8841 26.2493 13.5978 26.2493C14.2847 26.2493 14.8723 25.817 15.1126 25.2052C15.1392 25.1376 15.2017 25.0901 15.2733 25.0901C15.3448 25.0901 15.4074 25.1376 15.4339 25.2052C15.6742 25.817 16.2619 26.2493 16.9487 26.2493C17.6355 26.2493 18.2232 25.817 18.4635 25.2052C18.49 25.1376 18.5526 25.0901 18.6242 25.0901C18.6957 25.0901 18.7583 25.1376 18.7848 25.2052C19.0252 25.817 19.6128 26.2493 20.2996 26.2493C21.0133 26.2493 21.6199 25.7825 21.841 25.1326C21.8496 25.1074 21.8726 25.0901 21.8988 25.0901C21.9319 25.0901 21.9587 25.1174 21.9587 25.1511V26.3861C21.9587 26.5263 21.8469 26.64 21.709 26.64H12.189C12.051 26.64 11.9392 26.5263 11.9392 26.3861V25.1508Z" fill="#2C355A"/>
<path d="M13.4132 10.7421C9.2112 16.2929 12.6755 19.6549 15.0868 20.6421C14.4871 19.8013 14.2583 17.2928 16.9096 13.9847C17.9621 15.2857 19.7513 18.4386 18.4884 20.6421C24.4532 18.2804 22.3709 13.8677 20.5842 11.9565C20.069 12.3288 20.0807 12.3218 19.2021 12.8289C19.8251 9.21341 17.3335 5.86457 16.0098 4.64209C15.7544 7.01228 14.1723 9.69637 13.4132 10.7421Z" fill="#D64D4D"/>
</svg>
