<svg width="33" height="33" viewBox="0 0 33 33" fill="none" xmlns="http://www.w3.org/2000/svg">
<path fill-rule="evenodd" clip-rule="evenodd" d="M11.7375 20.5998L11.8782 20.0947H11.3026C11.2936 20.0355 11.2814 19.9786 11.2658 19.9241L11.2614 19.9088C11.2585 19.8994 11.2556 19.89 11.2526 19.8807C11.2385 19.8374 11.2223 19.7956 11.2039 19.7554C11.1928 19.731 11.1808 19.7072 11.1681 19.6839C11.1628 19.6742 11.1574 19.6646 11.1518 19.6551C11.1347 19.6255 11.1162 19.597 11.0964 19.5695H11.7375L11.8811 19.0643H9.20794L9.05289 19.6351H9.80516C9.8475 19.6351 9.88802 19.6367 9.92671 19.6398C10.0018 19.6457 10.07 19.6575 10.1314 19.675C10.1813 19.6893 10.2266 19.7074 10.2674 19.7293C10.2828 19.7376 10.2976 19.7463 10.3118 19.7554C10.3776 19.7974 10.4318 19.8485 10.4744 19.9088C10.4913 19.9328 10.5065 19.9584 10.5198 19.9853L10.523 19.9919C10.5263 19.9988 10.5299 20.0067 10.533 20.0137L10.5347 20.0178C10.5454 20.0426 10.5549 20.0682 10.5631 20.0947H9.19071L9.05002 20.5998H10.5752C10.5715 20.6133 10.5675 20.6267 10.5631 20.6399C10.5579 20.6553 10.5523 20.6706 10.5462 20.6856L10.5451 20.6882L10.5404 20.6994C10.5333 20.7159 10.5256 20.7322 10.5172 20.7482C10.4988 20.7831 10.4773 20.8156 10.4528 20.8459L10.4493 20.8501C10.4227 20.8824 10.3926 20.912 10.3589 20.9391C10.3277 20.9643 10.2933 20.9873 10.2559 21.008C10.188 21.0451 10.1091 21.0712 10.0191 21.0864C9.99356 21.0907 9.96712 21.0942 9.9398 21.0967C9.92012 21.0985 9.89998 21.0999 9.87938 21.1008C9.85892 21.1017 9.83801 21.1022 9.81664 21.1022H9.13042L9.13329 21.5274L10.5775 23.2199H11.3872V23.1828L10.0664 21.6273C10.1495 21.62 10.228 21.6097 10.3021 21.5962C10.3891 21.5803 10.4699 21.5602 10.5445 21.5357L10.5477 21.5346C10.6411 21.5038 10.7247 21.4662 10.7986 21.4218C10.8436 21.3943 10.8856 21.3648 10.9245 21.3332C11.0145 21.2601 11.0882 21.176 11.1457 21.081L11.1483 21.0766C11.1664 21.0463 11.1829 21.0148 11.1977 20.9823C11.2041 20.9681 11.2103 20.9537 11.2162 20.9391C11.2359 20.8906 11.2528 20.8401 11.267 20.7878C11.282 20.7325 11.2939 20.6751 11.3026 20.6155L11.3049 20.5998H11.7375ZM15.4656 21.1421C15.4656 23.9035 13.227 26.1421 10.4656 26.1421C7.70415 26.1421 5.46558 23.9035 5.46558 21.1421C5.46558 18.3807 7.70415 16.1421 10.4656 16.1421C13.227 16.1421 15.4656 18.3807 15.4656 21.1421ZM10.4656 25.2976C12.7606 25.2976 14.6211 23.4371 14.6211 21.1421C14.6211 18.8471 12.7606 16.9866 10.4656 16.9866C8.17054 16.9866 6.31004 18.8471 6.31004 21.1421C6.31004 23.4371 8.17054 25.2976 10.4656 25.2976ZM23.7375 20.5998L23.8782 20.0947H23.3026C23.2936 20.0355 23.2814 19.9786 23.2658 19.9241L23.2614 19.9088C23.2585 19.8994 23.2556 19.89 23.2526 19.8807C23.2385 19.8374 23.2223 19.7956 23.2039 19.7554C23.1928 19.731 23.1808 19.7072 23.1681 19.6839C23.1628 19.6742 23.1574 19.6646 23.1518 19.6551C23.1347 19.6255 23.1162 19.597 23.0964 19.5695H23.7375L23.8811 19.0643H21.2079L21.0529 19.6351H21.8052C21.8475 19.6351 21.888 19.6367 21.9267 19.6398C22.0018 19.6457 22.07 19.6575 22.1314 19.675C22.1813 19.6893 22.2266 19.7074 22.2674 19.7293C22.2828 19.7376 22.2976 19.7463 22.3118 19.7554C22.3776 19.7974 22.4318 19.8485 22.4744 19.9088C22.4913 19.9328 22.5065 19.9584 22.5198 19.9853L22.523 19.9919C22.5263 19.9988 22.5299 20.0067 22.533 20.0137L22.5347 20.0178C22.5454 20.0426 22.5549 20.0682 22.5631 20.0947H21.1907L21.05 20.5998H22.5752C22.5715 20.6133 22.5675 20.6267 22.5631 20.6399C22.5579 20.6553 22.5523 20.6706 22.5462 20.6856L22.5451 20.6882L22.5404 20.6994C22.5333 20.7159 22.5256 20.7322 22.5172 20.7482C22.4988 20.7831 22.4773 20.8156 22.4528 20.8459L22.4493 20.8501C22.4227 20.8824 22.3926 20.912 22.3589 20.9391C22.3277 20.9643 22.2933 20.9873 22.2559 21.008C22.188 21.0451 22.1091 21.0712 22.0191 21.0864C21.9936 21.0907 21.9671 21.0942 21.9398 21.0967C21.9201 21.0985 21.9 21.0999 21.8794 21.1008C21.8589 21.1017 21.838 21.1022 21.8166 21.1022H21.1304L21.1333 21.5274L22.5775 23.2199H23.3872V23.1828L22.0664 21.6273C22.1495 21.62 22.228 21.6097 22.3021 21.5962C22.3891 21.5803 22.4699 21.5602 22.5445 21.5357L22.5477 21.5346C22.6411 21.5038 22.7247 21.4662 22.7986 21.4218C22.8436 21.3943 22.8856 21.3648 22.9245 21.3332C23.0145 21.2601 23.0882 21.176 23.1457 21.081L23.1483 21.0766C23.1664 21.0463 23.1829 21.0148 23.1977 20.9823C23.2041 20.9681 23.2103 20.9537 23.2162 20.9391C23.2359 20.8906 23.2528 20.8401 23.267 20.7878C23.282 20.7325 23.2939 20.6751 23.3026 20.6155L23.3049 20.5998H23.7375ZM27.4656 21.1421C27.4656 23.9035 25.227 26.1421 22.4656 26.1421C19.7042 26.1421 17.4656 23.9035 17.4656 21.1421C17.4656 18.3807 19.7042 16.1421 22.4656 16.1421C25.227 16.1421 27.4656 18.3807 27.4656 21.1421ZM22.4656 25.2976C24.7606 25.2976 26.6211 23.4371 26.6211 21.1421C26.6211 18.8471 24.7606 16.9866 22.4656 16.9866C20.1705 16.9866 18.31 18.8471 18.31 21.1421C18.31 23.4371 20.1705 25.2976 22.4656 25.2976Z" fill="#2C355A"/>
<path fill-rule="evenodd" clip-rule="evenodd" d="M21.4656 11.1421C21.4656 13.9035 19.227 16.1421 16.4656 16.1421C13.7042 16.1421 11.4656 13.9035 11.4656 11.1421C11.4656 8.38067 13.7042 6.14209 16.4656 6.14209C19.227 6.14209 21.4656 8.38067 21.4656 11.1421ZM17.996 10.4896L18.1653 9.8818H17.4727C17.4427 9.68398 17.3822 9.5077 17.2912 9.35295C17.2706 9.3173 17.2484 9.28296 17.2246 9.24993H17.996L18.1687 8.64209H14.9524L14.7658 9.32891H15.671C15.9013 9.32891 16.0867 9.36669 16.2272 9.44224C16.3677 9.51779 16.4701 9.6231 16.5346 9.75817C16.5535 9.79763 16.5696 9.83884 16.5829 9.8818H14.9316L14.7624 10.4896H16.5974C16.5805 10.5519 16.5573 10.6114 16.5277 10.6682C16.4586 10.7987 16.3538 10.9029 16.2133 10.9807C16.0752 11.0563 15.899 11.094 15.6848 11.094H14.8591L14.8625 11.6057L16.6003 13.6421H17.5745V13.5975L15.9853 11.7259C16.3515 11.6939 16.6452 11.6114 16.8663 11.4787C17.0874 11.3436 17.2475 11.1673 17.3465 10.9498C17.4095 10.8099 17.4525 10.6565 17.4754 10.4896H17.996Z" fill="#ACB2BD"/>
</svg>
